<svg width="70" height="70" viewBox="0 0 70 70" fill="none" xmlns="http://www.w3.org/2000/svg">
<path fill-rule="evenodd" clip-rule="evenodd" d="M16.1833 8.03467H6.5625V26.7407H6.58305C6.96391 34.0025 12.5935 39.8034 19.7772 41.0902V43.2593C19.7772 53.5904 28.1522 61.9654 38.4833 61.9654C48.8144 61.9654 57.1894 53.5904 57.1894 43.2593V42.5391C60.7877 41.5757 63.4374 38.2923 63.4374 34.3901C63.4374 29.7314 59.6607 25.9547 55.002 25.9547C50.3433 25.9547 46.5666 29.7314 46.5666 34.3901C46.5666 38.2922 49.2162 41.5755 52.8144 42.539V43.2593C52.8144 51.1741 46.3981 57.5904 38.4833 57.5904C30.5685 57.5904 24.1522 51.1741 24.1522 43.2593V41.3032C32.108 40.671 38.5889 34.5508 38.9985 26.7407H39.0191V8.03467H29.3983V12.4097H34.6441V25.9547C34.6441 31.9219 29.464 36.9821 22.7908 36.9821C16.1176 36.9821 10.9375 31.9219 10.9375 25.9547V12.4097H16.1833V8.03467ZM59.0624 34.3901C59.0624 36.6326 57.2445 38.4505 55.002 38.4505C52.7595 38.4505 50.9416 36.6326 50.9416 34.3901C50.9416 32.1476 52.7595 30.3297 55.002 30.3297C57.2445 30.3297 59.0624 32.1476 59.0624 34.3901Z" fill="#009E9E"/>
</svg>
