<svg width="70" height="70" viewBox="0 0 70 70" fill="none" xmlns="http://www.w3.org/2000/svg">
<path fill-rule="evenodd" clip-rule="evenodd" d="M33.125 16.25C33.125 20.3921 29.7671 23.75 25.625 23.75C21.4829 23.75 18.125 20.3921 18.125 16.25C18.125 12.1079 21.4829 8.75 25.625 8.75C29.7671 8.75 33.125 12.1079 33.125 16.25Z" fill="#009E9E"/>
<path fill-rule="evenodd" clip-rule="evenodd" d="M12.5 36.25C16.6421 36.25 20 32.8921 20 28.75C20 24.6079 16.6421 21.25 12.5 21.25C8.35786 21.25 5 24.6079 5 28.75C5 32.8921 8.35786 36.25 12.5 36.25Z" fill="#009E9E"/>
<path fill-rule="evenodd" clip-rule="evenodd" d="M57.5 36.25C61.6421 36.25 65 32.8921 65 28.75C65 24.6079 61.6421 21.25 57.5 21.25C53.3579 21.25 50 24.6079 50 28.75C50 32.8921 53.3579 36.25 57.5 36.25Z" fill="#009E9E"/>
<path fill-rule="evenodd" clip-rule="evenodd" d="M44.375 23.75C48.5171 23.75 51.875 20.3921 51.875 16.25C51.875 12.1079 48.5171 8.75 44.375 8.75C40.2329 8.75 36.875 12.1079 36.875 16.25C36.875 20.3921 40.2329 23.75 44.375 23.75Z" fill="#009E9E"/>
<path fill-rule="evenodd" clip-rule="evenodd" d="M24.4429 61.25C17.1918 61.25 14 57.0823 14 51.2007C14 46.659 16.3044 44.3851 19.5092 41.2228C20.4547 40.2898 21.4786 39.2795 22.5448 38.1109C23.5716 36.9853 24.374 35.8618 25.1246 34.8109C27.3528 31.6911 29.1245 29.2105 34.9565 29.2105C40.2894 29.2105 42.0136 31.4358 44.1309 34.1684C45.109 35.4307 46.171 36.8014 47.7115 38.1109C52.9533 42.5667 56 45.3706 56 51.2007C56 57.0309 52.7007 61.25 45.4496 61.25C43.9428 61.25 42.292 60.6332 40.5673 59.9888C38.6809 59.284 36.706 58.546 34.7345 58.546C32.8367 58.546 30.9419 59.2839 29.132 59.9887C27.4773 60.6332 25.8933 61.25 24.4429 61.25Z" fill="#009E9E"/>
</svg>
